# xmcd CD database file
#
# Track frame offsets:
#	150
#	15854
#	29601
#	43252
#	56750
#	72508
#	88915
#	104449
#	121458
#	168959
#	192728
#	216405
#	239791
#
# Disc length: 3658 seconds
#
# Revision: 4
# Processed by: cddbd v1.5.2PL0 Copyright (c) Steve Scherf et al.
# Submitted via: CDex 1.51
#
DISCID=ca0e480d
DTITLE=Thelonious Monk - Four in one CD 2
DYEAR=2005
DGENRE=Jazz
TTITLE0=Four In One
TTITLE1=Eronel
TTITLE2=Willow Weep For Me
TTITLE3=Skippy
TTITLE4=Sixteen (First Take)
TTITLE5=Sixteen (Second Take)
TTITLE6=Carolina Moon
TTITLE7=I'll Follow You
TTITLE8=Friday The 13th
TTITLE9=Work
TTITLE10=Nutty
TTITLE11=The Way You Look Tonight
TTITLE12=I Want To Be Happy
EXTD=YEAR: 2005
EXTT0=
EXTT1=
EXTT2=
EXTT3=
EXTT4=
EXTT5=
EXTT6=
EXTT7=
EXTT8=
EXTT9=
EXTT10=
EXTT11=
EXTT12=
PLAYORDER=
